<svg xmlns="http://www.w3.org/2000/svg" xmlns:xlink="http://www.w3.org/1999/xlink" viewBox="0 0 251.19 222.27"><defs><style>.cls-1{isolation:isolate;}.cls-2{fill:url(#linear-gradient);}.cls-3{fill:url(#linear-gradient-2);}.cls-4{mix-blend-mode:multiply;fill:url(#linear-gradient-3);}.cls-5{fill:url(#linear-gradient-4);}.cls-6{mix-blend-mode:screen;fill:url(#linear-gradient-5);}.cls-7{fill:#fff;}.cls-8{fill:url(#linear-gradient-6);}.cls-9{fill:url(#linear-gradient-7);}</style><linearGradient id="linear-gradient" x1="125.6" y1="225.9" x2="125.6" y2="212.47" gradientUnits="userSpaceOnUse"><stop offset="0" stop-color="#333"/><stop offset="0.3" stop-color="#424242"/><stop offset="0.34" stop-color="#585858"/><stop offset="0.46" stop-color="#979797"/><stop offset="0.57" stop-color="#c6c6c6"/><stop offset="0.64" stop-color="#e2e2e2"/><stop offset="0.69" stop-color="#ededed"/><stop offset="0.83" stop-color="#ebebeb"/><stop offset="0.89" stop-color="#e4e4e4"/><stop offset="0.92" stop-color="#d9d9d9"/><stop offset="0.95" stop-color="#c8c8c8"/><stop offset="0.98" stop-color="#b2b2b2"/><stop offset="1" stop-color="#979797"/><stop offset="1" stop-color="#969696"/></linearGradient><linearGradient id="linear-gradient-2" x1="125.59" y1="175.41" x2="125.59" y2="226.44" gradientUnits="userSpaceOnUse"><stop offset="0" stop-color="#333"/><stop offset="0.05" stop-color="#717171"/><stop offset="0.11" stop-color="#bdbdbd"/><stop offset="0.15" stop-color="#ededed"/><stop offset="0.17" stop-color="#fff"/><stop offset="0.21" stop-color="#fafafa"/><stop offset="0.26" stop-color="#eaeaea"/><stop offset="0.31" stop-color="#d0d0d0"/><stop offset="0.37" stop-color="#adadad"/><stop offset="0.42" stop-color="#868686"/><stop offset="0.46" stop-color="#7c7c7c"/><stop offset="0.54" stop-color="#717171"/><stop offset="0.62" stop-color="#6e6e6e"/><stop offset="0.87" stop-color="#ededed"/><stop offset="0.93" stop-color="#ebebeb"/><stop offset="0.95" stop-color="#e4e4e4"/><stop offset="0.97" stop-color="#d9d9d9"/><stop offset="0.98" stop-color="#c8c8c8"/><stop offset="0.99" stop-color="#b2b2b2"/><stop offset="1" stop-color="#979797"/><stop offset="1" stop-color="#969696"/></linearGradient><linearGradient id="linear-gradient-3" x1="125.59" y1="175.66" x2="125.59" y2="182.72" gradientUnits="userSpaceOnUse"><stop offset="0" stop-color="#333"/><stop offset="0.14" stop-color="#717171"/><stop offset="0.33" stop-color="#bdbdbd"/><stop offset="0.47" stop-color="#ededed"/><stop offset="0.53" stop-color="#fff"/><stop offset="1" stop-color="#fff"/></linearGradient><linearGradient id="linear-gradient-4" x1="125.59" y1="-103.67" x2="125.59" y2="304.21" gradientUnits="userSpaceOnUse"><stop offset="0" stop-color="#333"/><stop offset="0.05" stop-color="#3d3d3d"/><stop offset="0.14" stop-color="#575757"/><stop offset="0.24" stop-color="#828282"/><stop offset="0.37" stop-color="#bdbdbd"/><stop offset="0.5" stop-color="#fff"/><stop offset="0.57" stop-color="#c9c9c9"/><stop offset="0.66" stop-color="#8c8c8c"/><stop offset="0.74" stop-color="#5a5a5a"/><stop offset="0.82" stop-color="#333"/><stop offset="0.89" stop-color="#171717"/><stop offset="0.95" stop-color="#060606"/><stop offset="1"/></linearGradient><linearGradient id="linear-gradient-5" x1="125.59" y1="-128.87" x2="125.59" y2="275.3" xlink:href="#linear-gradient-4"/><linearGradient id="linear-gradient-6" x1="2.2" y1="70.26" x2="248.98" y2="70.26" gradientUnits="userSpaceOnUse"><stop offset="0" stop-color="#333"/><stop offset="0.29" stop-color="#292929"/><stop offset="0.77" stop-color="#0f0f0f"/><stop offset="1"/></linearGradient><linearGradient id="linear-gradient-7" x1="125.59" y1="3.05" x2="125.59" y2="8.35" xlink:href="#linear-gradient-3"/></defs><g class="cls-1"><g id="图层_2" data-name="图层 2"><g id="Layer_1" data-name="Layer 1"><path class="cls-2" d="M151.11,217.92v0l-25.5,0-25.51,0v0l-54.4.05V221s.21,1.15,1.9,1.25h156c1.69-.1,1.9-1.25,1.9-1.25V218Z"/><path class="cls-3" d="M205.51,218c.15-1.83-3.31-3.21-3.31-3.21s-31.81-6.87-40.63-10.53-9.13-14.2-9.13-14.2V146.47H98.75V190s-.31,10.54-9.13,14.2S49,214.76,49,214.76s-3.47,1.38-3.31,3.21c0,0-.51,1.18,5.06,1.18H200.45C206,219.15,205.51,218,205.51,218Z"/><rect class="cls-4" x="98.75" y="146.47" width="53.69" height="36.26"/><path class="cls-5" d="M244.23,0H7c-7,0-7,6.88-7,6.88V170.19s-.07,6.88,7,6.88H244.23c7,0,7-6.88,7-6.88V6.88S251.25,0,244.23,0Z"/><path class="cls-6" d="M242.48.55H8.71C1.79.55,1.85,7.37,1.85,7.37V169.2S1.79,176,8.71,176H242.48c6.92,0,6.85-6.81,6.85-6.81V7.37S249.4.55,242.48.55Z"/><path class="cls-7" d="M249,139V8.31s.07-6.76-6.83-6.76H9c-6.9,0-6.84,6.76-6.84,6.76V139Z"/><path class="cls-8" d="M249,139V8.31s.07-6.76-6.83-6.76H9c-6.9,0-6.84,6.76-6.84,6.76V139Z"/><rect class="cls-7" x="7.97" y="8.61" width="235.24" height="123.94"/><path class="cls-9" d="M126.35,3.43a.76.76,0,0,1-.76.75.76.76,0,0,1,0-1.51A.76.76,0,0,1,126.35,3.43Z"/></g></g></g></svg>